<?xml version="1.0" encoding="UTF-8" standalone="no"?>
<svg
   xmlns:dc="http://purl.org/dc/elements/1.1/"
   xmlns:cc="http://creativecommons.org/ns#"
   xmlns:rdf="http://www.w3.org/1999/02/22-rdf-syntax-ns#"
   xmlns:svg="http://www.w3.org/2000/svg"
   xmlns="http://www.w3.org/2000/svg"
   xmlns:sodipodi="http://sodipodi.sourceforge.net/DTD/sodipodi-0.dtd"
   xmlns:inkscape="http://www.inkscape.org/namespaces/inkscape"
   width="379.96191mm"
   height="101.45911mm"
   viewBox="0 0 379.96191 101.45911"
   version="1.1"
   id="svg1149"
   inkscape:version="1.0 (4035a4fb49, 2020-05-01)"
   sodipodi:docname="owl.svg">
  <defs
     id="defs1143" />
  <sodipodi:namedview
     id="base"
     pagecolor="#ffffff"
     bordercolor="#666666"
     borderopacity="1.0"
     inkscape:pageopacity="0.0"
     inkscape:pageshadow="2"
     inkscape:zoom="0.98994949"
     inkscape:cx="498.62249"
     inkscape:cy="350.0208"
     inkscape:document-units="mm"
     inkscape:current-layer="layer1"
     inkscape:document-rotation="0"
     showgrid="false"
     fit-margin-top="0"
     fit-margin-left="0"
     fit-margin-right="0"
     fit-margin-bottom="0"
     inkscape:window-width="2560"
     inkscape:window-height="1417"
     inkscape:window-x="-8"
     inkscape:window-y="-8"
     inkscape:window-maximized="1" />
  <metadata
     id="metadata1146">
    <rdf:RDF>
      <cc:Work
         rdf:about="">
        <dc:format>image/svg+xml</dc:format>
        <dc:type
           rdf:resource="http://purl.org/dc/dcmitype/StillImage" />
        <dc:title></dc:title>
      </cc:Work>
    </rdf:RDF>
  </metadata>
  <g
     inkscape:label="Layer 1"
     inkscape:groupmode="layer"
     id="layer1"
     transform="translate(71.296434,-27.133539)">
    <path
       id="path1026"
       style="display:inline;opacity:1;fill:none;fill-opacity:1;stroke:#000000;stroke-width:2;stroke-linecap:round;stroke-miterlimit:4;stroke-dasharray:none;stroke-opacity:1"
       d="m 13.361269,28.133547 a 11.804079,11.804079 0 0 0 -11.8039885,11.80391 11.804079,11.804079 0 0 0 11.8039885,11.80446 11.804079,11.804079 0 0 0 10.55807,-6.52571 19.099197,19.099197 0 0 1 -10.55807,-17.08266 z"
       class="moon" />
    <path
       d="m -51.19734,28.133547 a 19.099197,19.099197 0 0 0 -19.099094,19.09909 19.099197,19.099197 0 0 0 0.05168,1.40508 l -0.03876,0.0207 A 80.900003,80.900003 0 0 0 -0.19167051,127.40917 211.78972,211.78972 0 0 0 -33.060465,53.218347 a 19.099197,19.099197 0 0 0 0.962216,-5.98568 19.099197,19.099197 0 0 0 -19.099091,-19.09909 z"
       style="display:inline;fill:none;fill-opacity:1;stroke:#000000;stroke-width:2;stroke-linecap:round;stroke-miterlimit:4;stroke-dasharray:none;stroke-opacity:1"
       id="path1028"
       class="transformable" />
    <path
       style="display:inline;fill:none;fill-opacity:1;stroke:#000000;stroke-width:2;stroke-linecap:round;stroke-miterlimit:4;stroke-dasharray:none;stroke-opacity:1"
       d="m -4.9791795,109.91438 c 0,0 41.5832855,-1.10354 76.1768855,8.3976"
       id="path1094"
       class="transformable" />
    <path
       style="display:inline;fill:none;fill-opacity:1;stroke:#000000;stroke-width:2;stroke-linecap:round;stroke-miterlimit:4;stroke-dasharray:none;stroke-opacity:1"
       d="m -56.02654,121.81889 c 0,0 41.042237,-6.77649 76.609769,-2.09252"
       id="path1112"
       class="transformable" />
  </g>
</svg>
