<svg width="143.49414mm" height="101.45911mm" version="1.1" viewBox="0 0 143.49414 101.45912" xmlns="http://www.w3.org/2000/svg">
 <g transform="translate(71.296434,-27.133539)" fill="none" stroke="#000" stroke-linecap="round" stroke-width="2">
  <g>
   <path class="moon" d="m13.361269 28.133547a11.804079 11.804079 0 0 0-11.8039885 11.80391 11.804079 11.804079 0 0 0 11.8039885 11.80446 11.804079 11.804079 0 0 0 10.55807-6.52571 19.099197 19.099197 0 0 1-10.55807-17.08266z"/>
   <path class="transformable" d="m-51.19734 28.133547a19.099197 19.099197 0 0 0-19.099094 19.09909 19.099197 19.099197 0 0 0 0.05168 1.40508l-0.03876 0.0207a80.900003 80.900003 0 0 0 70.09184349 78.750753 211.78972 211.78972 0 0 0-32.86879449-74.190823 19.099197 19.099197 0 0 0 0.962216-5.98568 19.099197 19.099197 0 0 0-19.099091-19.09909z"/>
   <path class="transformable" d="m-4.9791795 109.91438s41.5832855-1.10354 76.1768855 8.3976"/>
   <path class="transformable" d="m-56.02654 121.81889s41.042237-6.77649 76.609769-2.09252"/>
  </g>
  <circle cx="48.707584" cy="39.695202" r="11.492589" stroke-linejoin="round"/>
 </g>
</svg>
